<?xml version="1.0" standalone="no"?>
<!DOCTYPE svg PUBLIC "-//W3C//DTD SVG 20010904//EN"
 "http://www.w3.org/TR/2001/REC-SVG-20010904/DTD/svg10.dtd">
<svg version="1.0" xmlns="http://www.w3.org/2000/svg"
 width="512.000000pt" height="512.000000pt" viewBox="0 0 512.000000 512.000000"
 preserveAspectRatio="xMidYMid meet">
<metadata>
Created by potrace 1.16, written by Peter Selinger 2001-2019
</metadata>
<g transform="translate(0.000000,512.000000) scale(0.100000,-0.100000)"
fill="#000000" stroke="none">
<path d="M2123 4809 l-423 -309 -545 0 -545 0 0 -408 0 -408 -305 -225 -305
-224 0 -1617 0 -1618 2560 0 2560 0 0 1618 0 1617 -305 224 -305 225 0 408 0
408 -545 0 -545 0 -424 310 c-233 171 -430 310 -438 309 -7 0 -203 -139 -435
-310z m599 -186 l162 -118 -162 -3 c-89 -1 -234 -1 -323 0 l-161 3 158 117
c88 64 160 117 161 117 2 1 76 -52 165 -116z m1488 -1170 l-1 -748 -707 -602
-707 -603 -235 0 -235 0 -707 603 -707 602 -1 748 0 747 1650 0 1650 0 0 -747z
m-3602 -404 l-3 -82 -97 83 c-54 46 -98 87 -98 91 0 4 44 39 98 78 l97 71 3
-80 c2 -44 2 -117 0 -161z m4015 163 c48 -35 87 -67 87 -71 0 -7 -162 -149
-187 -165 -10 -6 -13 28 -13 154 0 126 3 160 13 154 6 -5 51 -37 100 -72z
m-3460 -1132 c681 -581 823 -706 809 -714 -9 -5 -387 -220 -840 -478 -453
-257 -825 -468 -827 -468 -3 0 -5 538 -5 1196 0 1160 1 1195 18 1182 11 -7
391 -330 845 -718z m3653 -1657 c-2 -2 -374 207 -827 465 -453 258 -832 473
-841 478 -14 8 134 138 825 728 l842 718 3 -1193 c1 -656 0 -1194 -2 -1196z
m-1221 330 l786 -448 -910 -3 c-501 -1 -1321 -1 -1822 0 l-910 3 783 447 783
446 251 1 252 1 787 -447z"/>
<path d="M2351 3885 c-399 -90 -691 -361 -808 -750 -25 -85 -27 -102 -27 -285
0 -184 1 -200 27 -285 111 -364 370 -622 732 -731 84 -26 103 -28 280 -28 171
-1 198 1 273 23 49 14 82 28 82 36 0 10 -87 269 -94 282 -1 1 -35 -7 -76 -18
-94 -24 -250 -26 -346 -4 -148 34 -302 130 -409 255 -56 67 -129 211 -149 300
-23 94 -21 259 4 354 51 200 194 379 382 476 109 57 209 81 338 81 227 0 422
-92 575 -271 56 -67 129 -211 149 -300 22 -94 21 -207 -3 -244 -60 -91 -189
-88 -246 6 -18 30 -20 54 -23 276 l-4 243 -286 -3 -287 -3 -70 -34 c-92 -45
-171 -124 -216 -216 -33 -68 -34 -73 -34 -195 0 -122 1 -127 34 -195 45 -92
125 -171 216 -215 60 -29 83 -34 164 -38 119 -6 181 8 265 59 l66 40 58 -35
c91 -56 146 -69 264 -64 92 3 111 8 173 38 91 44 171 123 216 215 l34 70 -1
160 c0 144 -3 169 -28 250 -89 296 -277 524 -541 655 -165 82 -249 102 -450
106 -122 3 -188 -1 -234 -11z m357 -979 c-4 -72 -10 -102 -26 -127 -76 -123
-262 -72 -262 71 0 69 44 124 114 141 17 4 64 7 105 8 l74 1 -5 -94z"/>
</g>
</svg>
